REM DIRINDEX 1\5,1\2\6,1\2\7,1\3\8,1\3\9,1\4\10,1\4\11,1\4\12
REM DIRNAME cjc026,folder01,folder02,folder03,folder04,folder05,folder06,folder07,folder08,folder09,folder10,folder11
TITLE ""
FILE "EJE_DB3000_5th_2A_45.mp3" MP3
  TRACK 01 AUDIO
    TITLE "0:"
    INDEX 01 00:00:00
  TRACK 02 AUDIO
    TITLE "10:cjc026_08082"
    INDEX 01 00:00:08
  TRACK 03 AUDIO
    TITLE "0:"
    INDEX 01 00:01:16
  TRACK 04 AUDIO
    TITLE "11:cjc026_08083"
    INDEX 01 00:01:51
  TRACK 05 AUDIO
    TITLE "0:"
    INDEX 01 00:02:68
  TRACK 06 AUDIO
    TITLE "12:cjc026_08084"
    INDEX 01 00:03:28
  TRACK 07 AUDIO
    TITLE "0:"
    INDEX 01 00:04:40
  TRACK 08 AUDIO
    TITLE "10:cjc026_08085"
    INDEX 01 00:05:00
  TRACK 09 AUDIO
    TITLE "0:"
    INDEX 01 00:06:19
  TRACK 10 AUDIO
    TITLE "11:cjc026_08086"
    INDEX 01 00:06:54
  TRACK 11 AUDIO
    TITLE "0:"
    INDEX 01 00:07:58
  TRACK 12 AUDIO
    TITLE "12:cjc026_08087"
    INDEX 01 00:08:20
  TRACK 13 AUDIO
    TITLE "0:"
    INDEX 01 00:09:40
  TRACK 14 AUDIO
    TITLE "10:cjc026_08088"
    INDEX 01 00:10:00
  TRACK 15 AUDIO
    TITLE "0:"
    INDEX 01 00:11:22
  TRACK 16 AUDIO
    TITLE "11:cjc026_08089"
    INDEX 01 00:11:55
  TRACK 17 AUDIO
    TITLE "0:"
    INDEX 01 00:12:61
  TRACK 18 AUDIO
    TITLE "12:cjc026_08090"
    INDEX 01 00:13:24
  TRACK 19 AUDIO
    TITLE "0:"
    INDEX 01 00:14:43
  TRACK 20 AUDIO
    TITLE "10:cjc026_08091"
    INDEX 01 00:15:03
  TRACK 21 AUDIO
    TITLE "0:"
    INDEX 01 00:16:20
  TRACK 22 AUDIO
    TITLE "11:cjc026_08092"
    INDEX 01 00:16:60
  TRACK 23 AUDIO
    TITLE "0:"
    INDEX 01 00:17:72
  TRACK 24 AUDIO
    TITLE "12:cjc026_08093"
    INDEX 01 00:18:35
  TRACK 25 AUDIO
    TITLE "0:"
    INDEX 01 00:19:51
  TRACK 26 AUDIO
    TITLE "10:cjc026_08094"
    INDEX 01 00:20:14
  TRACK 27 AUDIO
    TITLE "0:"
    INDEX 01 00:22:29
  TRACK 28 AUDIO
    TITLE "11:cjc026_08095"
    INDEX 01 00:22:67
  TRACK 29 AUDIO
    TITLE "0:"
    INDEX 01 00:24:30
  TRACK 30 AUDIO
    TITLE "12:cjc026_08096"
    INDEX 01 00:24:65
  TRACK 31 AUDIO
    TITLE "0:"
    INDEX 01 00:27:08
  TRACK 32 AUDIO
    TITLE "10:cjc026_08097"
    INDEX 01 00:27:40
  TRACK 33 AUDIO
    TITLE "0:"
    INDEX 01 00:28:54
  TRACK 34 AUDIO
    TITLE "11:cjc026_08098"
    INDEX 01 00:29:20
  TRACK 35 AUDIO
    TITLE "0:"
    INDEX 01 00:30:58
  TRACK 36 AUDIO
    TITLE "12:cjc026_08099"
    INDEX 01 00:31:18
  TRACK 37 AUDIO
    TITLE "0:"
    INDEX 01 00:32:32
  TRACK 38 AUDIO
    TITLE "10:cjc026_08100"
    INDEX 01 00:32:73
  TRACK 39 AUDIO
    TITLE "0:"
    INDEX 01 00:34:12
  TRACK 40 AUDIO
    TITLE "11:cjc026_08101"
    INDEX 01 00:34:50
  TRACK 41 AUDIO
    TITLE "0:"
    INDEX 01 00:36:29
  TRACK 42 AUDIO
    TITLE "12:cjc026_08102"
    INDEX 01 00:36:64
  TRACK 43 AUDIO
    TITLE "0:"
    INDEX 01 00:38:03
  TRACK 44 AUDIO
    TITLE "10:cjc026_08103"
    INDEX 01 00:38:41
  TRACK 45 AUDIO
    TITLE "0:"
    INDEX 01 00:39:61
  TRACK 46 AUDIO
    TITLE "11:cjc026_08104"
    INDEX 01 00:40:24
  TRACK 47 AUDIO
    TITLE "0:"
    INDEX 01 00:42:14
  TRACK 48 AUDIO
    TITLE "12:cjc026_08105"
    INDEX 01 00:42:52
  TRACK 49 AUDIO
    TITLE "0:"
    INDEX 01 00:43:71
  TRACK 50 AUDIO
    TITLE "10:cjc026_08106"
    INDEX 01 00:44:34
  TRACK 51 AUDIO
    TITLE "0:"
    INDEX 01 00:45:64
  TRACK 52 AUDIO
    TITLE "11:cjc026_08107"
    INDEX 01 00:46:27
  TRACK 53 AUDIO
    TITLE "0:"
    INDEX 01 00:47:47
  TRACK 54 AUDIO
    TITLE "12:cjc026_08108"
    INDEX 01 00:48:07
  TRACK 55 AUDIO
    TITLE "0:"
    INDEX 01 00:49:37
  TRACK 56 AUDIO
    TITLE "10:cjc026_08109"
    INDEX 01 00:50:00
  TRACK 57 AUDIO
    TITLE "0:"
    INDEX 01 00:51:06
  TRACK 58 AUDIO
    TITLE "11:cjc026_08110"
    INDEX 01 00:51:38
  TRACK 59 AUDIO
    TITLE "0:"
    INDEX 01 00:52:58
  TRACK 60 AUDIO
    TITLE "12:cjc026_08111"
    INDEX 01 00:53:18
  TRACK 61 AUDIO
    TITLE "0:"
    INDEX 01 00:54:24
  TRACK 62 AUDIO
    TITLE "10:cjc026_08112"
    INDEX 01 00:54:59
  TRACK 63 AUDIO
    TITLE "0:"
    INDEX 01 00:56:01
  TRACK 64 AUDIO
    TITLE "11:cjc026_08113"
    INDEX 01 00:56:36
  TRACK 65 AUDIO
    TITLE "0:"
    INDEX 01 00:57:72
  TRACK 66 AUDIO
    TITLE "12:cjc026_08114"
    INDEX 01 00:58:34
  TRACK 67 AUDIO
    TITLE "0:"
    INDEX 01 00:59:48
